<svg width="140" height="165" viewBox="0 0 140 165" fill="none" xmlns="http://www.w3.org/2000/svg">
    <path
        d="M10.7051 102.315L27.6739 49.4373M10.7051 102.315L31.8785 129.255M10.7051 102.315L48.5322 108.279M27.6739 49.4373L48.5322 108.279M27.6739 49.4373L85.6288 44.1798L125.282 69.8294L116.89 99.3235M116.89 99.3235L48.5322 108.279M116.89 99.3235L92.2386 149.39M48.5322 108.279L31.8785 129.255M48.5322 108.279L92.2386 149.39M31.8785 129.255L92.2386 149.39"
        stroke="#111111" stroke-width="2" />
    <path fill-rule="evenodd" clip-rule="evenodd"
        d="M103.847 24.5024L95.5304 17.3028L98.1484 14.2786L106.465 21.4782L103.847 24.5024Z" fill="#111111" />
    <path fill-rule="evenodd" clip-rule="evenodd"
        d="M8.84788 132.502L0.53135 125.303L3.14941 122.279L11.4659 129.478L8.84788 132.502Z" fill="#111111" />
    <path fill-rule="evenodd" clip-rule="evenodd"
        d="M116.847 10.5024L108.53 3.30276L111.148 0.278564L119.465 7.47824L116.847 10.5024Z" fill="#111111" />
    <rect x="66.5312" y="28.2786" width="19" height="52" fill="#9D70F9" />
    <rect x="42.5312" y="7.27856" width="19" height="73" fill="#FF5656" />
    <rect x="90.5312" y="45.2786" width="19" height="35" fill="#FF5656" />
    <circle cx="17.0322" cy="27.7786" r="4.5" stroke="#111111" stroke-width="2" />
    <circle cx="117.031" cy="137.779" r="4.5" stroke="#111111" stroke-width="2" />
</svg>